<?xml version="1.0" encoding="utf-8"?>
<svg viewBox="349.8999938964844 142.00001525878906 36.800018310546875 36.600006103515625" width="36.800018310546875" height="36.600006103515625" xmlns="http://www.w3.org/2000/svg">
  <path id="Facebook" fill="#8E99A8" d="M386.7,176.6c0,1.1-0.9,2-2,2h-9.4v-14.2h4.8l0.7-5.5h-5.5v-3.5c0-1.6,0.4-2.7,2.7-2.7l2.9,0&#10;&#9;&#9;v-5c-0.5-0.1-2.2-0.2-4.3-0.2c-4.2,0-7.1,2.6-7.1,7.3v4.1h-4.8v5.5h4.8v14.2h-17.6c-1.1,0-2-0.9-2-2V144c0-1.1,0.9-2,2-2h32.7&#10;&#9;&#9;c1.1,0,2,0.9,2,2V176.6z" transform="matrix(1, 0, 0, 1, 0, 0)"/>
</svg>