<?xml version="1.0" encoding="utf-8"?>
<svg viewBox="992.7999267578125 142.10000610351562 36.7000732421875 36.600006103515625" width="36.7000732421875" height="36.600006103515625" xmlns="http://www.w3.org/2000/svg">
  <path id="Instagram" fill="#8E99A8" d="M1025.1,142.1h-27.9c-2.4,0-4.4,1.9-4.4,4.3v28c0,2.4,2,4.3,4.4,4.3h27.9&#10;&#9;&#9;c2.4,0,4.4-1.9,4.4-4.3v-28C1029.4,144.1,1027.5,142.1,1025.1,142.1z M1019.1,147.9c0-0.6,0.5-1.1,1.1-1.1h3.4&#10;&#9;&#9;c0.6,0,1.1,0.5,1.1,1.1v3.4c0,0.6-0.5,1.1-1.1,1.1h-3.4c-0.6,0-1.1-0.5-1.1-1.1V147.9z M1011.1,153.5c3.9,0,7.1,3.1,7.1,7&#10;&#9;&#9;c0,3.9-3.2,7-7.1,7c-3.9,0-7-3.1-7-7C1004.1,156.6,1007.2,153.5,1011.1,153.5z M1026,174.2c0,0.6-0.5,1.1-1.1,1.1h-27.5&#10;&#9;&#9;c-0.6,0-1.1-0.5-1.1-1.1V157h4.6c-0.6,0.9-0.8,2.5-0.8,3.5c0,6.1,5,11.1,11.2,11.1c6.2,0,11.2-5,11.2-11.1c0-1-0.1-2.6-0.9-3.5h4.6&#10;&#9;&#9;V174.2z" transform="matrix(1, 0, 0, 1, 0, 0)"/>
</svg>